Simulation
nRows=48
nColumns=15
endheader
time  TH_x TH_y TH_z SC_y  SC_z  SC_x  AC_y  AC_z  AC_x  GH_y  GH_z  GH_yy  EL_x  PS_y
5.745  0.000000  0.000000  0.000000  -53.291869881320345  18.952525396088614  17.51268636959676  46.41634992209401  11.393706588189039  13.783578041689202  36.65553109488534  55.2401552640783  -46.0898477083329  18.582372478425267  120.000000
5.80245  0.000000  0.000000  0.000000  -52.03203418807369  18.292398278910678  14.991660900221563  45.846706339114334  11.084472052557876  12.684443106682874  38.00889433045982  54.37360023785787  -46.7993779692211  18.87543333475031  120.000000
5.8599  0.000000  0.000000  0.000000  -50.53495182932444  17.461665819217284  11.92244865404461  45.16253998307177  10.707773089245958  11.608895050774818  39.46836494928955  53.08604876344747  -47.31327138687896  19.268935197187023  120.000000
5.91735  0.000000  0.000000  0.000000  -48.844627945516436  16.42095844476633  8.428688630141421  44.3638615225779  10.315876967427668  10.642345871483318  40.89455120748594  51.347472302829075  -47.54258687571747  19.67321819462783  120.000000
5.9748  0.000000  0.000000  0.000000  -47.003412560370215  15.154070272718114  4.6630300136995215  43.45449406079534  9.994626408853474  9.854274125007048  42.175553458093425  49.13638983539944  -47.44860668897349  19.979415970525757  120.000000
6.03225  0.000000  0.000000  0.000000  -45.05249208084366  13.67221435337665  0.7931338564201214  42.45886717792026  9.846598865222282  9.291516127083106  43.243395547432605  46.45519628028974  -47.056776196735974  20.093212448178907  120.000000
6.089700000000001  0.000000  0.000000  0.000000  -43.03923500733859  12.011451381273808  -3.0140127113265387  41.427934378223185  9.967362564717014  8.977913533705573  44.08436579158558  43.345112736898045  -46.452204560096945  19.962612184857512  120.000000
6.14715  0.000000  0.000000  0.000000  -41.02708320865629  10.229055155822628  -6.6092552645422  40.433875822806485  10.420568395371763  8.918922547467655  44.74691350388174  39.89848602718272  -45.76488402100213  19.586586777443998  120.000000
6.2046  0.000000  0.000000  0.000000  -39.10139212470008  8.402602120707913  -9.880835173343112  39.55809376401875  11.220547183901845  9.101686633655772  45.3461049165313  36.25853506425101  -45.15237893264038  19.003338404887643  120.000000
6.26205  0.000000  0.000000  0.000000  -37.36396139184122  6.622692291797299  -12.765350269982136  38.86710820970473  12.326461987388468  9.496726009011372  46.06004960875025  32.596120932104824  -44.78420808420666  18.27405177948002  120.000000
6.3195  0.000000  0.000000  0.000000  -35.911264446388714  4.979129850690305  -15.242271735364922  38.39368362813306  13.653108180012602  10.06435240780109  47.113119762631406  29.075829455331377  -44.82800295396641  17.472926780365373  120.000000
6.37695  0.000000  0.000000  0.000000  -34.806606943616565  3.5512423475939285  -17.31902399028469  38.13847972231478  15.094036373023032  10.758235564597788  48.745900652424844  25.827064652288698  -45.434860449905734  16.682868274530932  120.000000
6.4344  0.000000  0.000000  0.000000  -34.0670575364192  2.394928266861516  -19.014990554018027  38.0754523285165  16.544359099364055  11.531238141837012  51.16977477665653  22.92955110947104  -46.72074039865439  15.988468814201157  120.000000
6.49185  0.000000  0.000000  0.000000  -33.665604920151466  1.5389574244042288  -20.352456200218473  38.16240584936992  17.916920617628893  12.33998638956342  54.52498446723026  20.419612571345752  -48.75381612226581  15.463912415704376  120.000000
6.549300000000001  0.000000  0.000000  0.000000  -33.54408699357388  0.9842821512168736  -21.355274353216203  38.352195208811175  19.14957060528212  13.144572972688378  58.84819077875471  18.306048881036766  -51.54565031018163  15.15855507482987  120.000000
6.60675  0.000000  0.000000  0.000000  -33.631837593826305  0.702301603905361  -22.05132622576803  38.59821487618501  20.206051354670162  13.907096105843037  64.0487618693253  16.58145447773306  -55.03746382742632  15.087627178228963  120.000000
6.6642  0.000000  0.000000  0.000000  -33.85868482105874  0.6438604871588975  -22.47423406197613  38.85750113208906  21.07208432762713  14.592314575568684  69.905959076433  15.22343738133135  -59.08658204890739  15.235386776445653  120.000000
6.72165  0.000000  0.000000  0.000000  -34.160926847629035  0.7498565613181167  -22.663180228915778  39.09304038597623  21.751121242805876  15.167863426650284  76.09447307878352  14.189340938517143  -63.467325592162844  15.562978125602418  120.000000
6.7791  0.000000  0.000000  0.000000  -34.48730427904934  0.9615988257899856  -22.66115089463742  39.28084174729618  22.25682651401705  15.60739083154576  82.26040095968536  13.419040503540502  -67.91819422065697  16.012438022346167  120.000000
6.83655  0.000000  0.000000  0.000000  -34.79662039069608  1.2229485193803473  -22.510312433041808  39.414329121073116  22.604283015961386  15.896203573258463  88.11340934916775  12.845980129151314  -72.21053973677117  16.50701468596167  120.000000
6.894  0.000000  0.000000  0.000000  -35.06013664933251  1.4862736713417206  -22.247429564427275  39.50318698214871  22.806144250192652  16.03265334989522  93.47753566179604  12.411692535643958  -76.19542850413407  16.95939870845826  120.000000
6.95145  0.000000  0.000000  0.000000  -35.26083052434828  1.7218195731434935  -21.902139367295327  39.5694270518216  22.87665604026999  16.023634938799994  98.28045475791943  12.072286701808826  -79.80438857741231  17.290819596369808  120.000000
7.008900000000001  0.000000  0.000000  0.000000  -35.391916481433555  1.9144255082786004  -21.495495061216644  39.63508181667672  22.833854520481072  15.883306425045625  102.5165316568851  11.795357438187418  -83.02755611448355  17.455866536667727  120.000000
7.06635  0.000000  0.000000  0.000000  -35.46289632611759  2.0581903849110605  -21.039416204630616  39.70996995242327  22.696600835837774  15.63419649547399  106.21671481075406  11.5567462558795  -85.89568185315287  17.46359294775409  120.000000
7.1238  0.000000  0.000000  0.000000  -35.495592172786466  2.1540388635506442  -20.53959231660398  39.792606382264985  22.484971283783775  15.300757386249181  109.42509090304134  11.338384453877435  -88.46060239064097  17.37419264166165  120.000000
7.18125  0.000000  0.000000  0.000000  -35.51387864845291  2.2100027280605556  -19.999365110170874  39.882186130884065  22.22176551088366  14.900904195034881  112.1769403063004  11.130608956366881  -90.76889597988735  17.272516971336163  120.000000
7.2387  0.000000  0.000000  0.000000  -35.53641217267414  2.239908284708763  -19.421368360401623  39.98404232331915  21.92812153463615  14.447512050706802  114.49170364605646  10.931145710243001  -92.8447223557497  17.23364435112495  120.000000
7.29615  0.000000  0.000000  0.000000  -35.57357386917475  2.255096324041066  -18.80745181051811  40.10266867418545  21.616236536281058  13.956416790202342  116.39336873439508  10.736101567291461  -94.69942953558298  17.294560997378042  120.000000
7.3536  0.000000  0.000000  0.000000  -35.626378995692995  2.261789501460395  -18.159651502645975  40.239177548930556  21.28877190322096  13.447594331704396  117.92693382365651  10.536504017443441  -96.34613319559006  17.448398685579278  120.000000
7.41105  0.000000  0.000000  0.000000  -35.68716539299208  2.266002975109388  -17.482741256381633  40.39753737062354  20.945183874991013  12.93758935461077  119.1451325620409  10.323070764230858  -97.79484129486455  17.661652654292936  120.000000
7.468500000000001  0.000000  0.000000  0.000000  -35.74297911927599  2.274417229809107  -16.78540299550455  40.584521299844006  20.58566132294884  12.43516929780009  120.1006528370226  10.088381041950255  -99.05553871720069  17.896553887673562  120.000000
7.52595  0.000000  0.000000  0.000000  -35.78399269508478  2.291425464499032  -16.078225586570827  40.80230843130365  20.210151459973694  11.94482288869727  120.84945682097018  9.827391309652109  -100.1503390306155  18.12680421691358  120.000000
7.5834  0.000000  0.000000  0.000000  -35.808243435305116  2.317951261500012  -15.371202812963405  41.04536993974197  19.818003299308682  11.47020281571031  121.44991002921287  9.538790471287218  -101.1164324201514  18.343262019657036  120.000000
7.64085  0.000000  0.000000  0.000000  -35.81997062296362  2.352568568292929  -14.672419721101255  41.30375960573317  19.409341355085882  11.014440489677597  121.95886015205849  9.22577614065845  -102.00017312222302  18.549408515325002  120.000000
7.6983  0.000000  0.000000  0.000000  -35.826230289560094  2.393108662695433  -13.98770894343365  41.56758605587255  18.986342431091238  10.579317591085097  122.42798118498585  8.895592964119263  -102.84924312153504  18.75292612772583  120.000000
7.75575  0.000000  0.000000  0.000000  -35.8332696883667  2.43719097343116  -13.3208969556974  41.830351910951016  18.553665647979102  10.164370272836608  122.90193983734353  8.558307607885599  -103.70668512963961  18.958914097463246  120.000000
7.8132  0.000000  0.000000  0.000000  -35.84567095314868  2.4814728861497857  -12.673806858117707  42.08905510315309  18.117570859108287  9.767422688722215  123.41614246951802  8.225289131390017  -104.60603891339473  19.16704930402104  120.000000
7.87065  0.000000  0.000000  0.000000  -35.8656857688591  2.5219768486759047  -12.046416227019488  42.34290910633093  17.68443385904421  9.385486023811332  123.99842818036846  7.907520668153335  -105.5707073698384  19.373180552445763  120.000000
7.928100000000001  0.000000  0.000000  0.000000  -35.89378655055597  2.554538495843075  -11.43747787245743  42.59259820539865  17.25994861886258  9.01449208652484  124.66458980169531  7.614624490644721  -106.60837965928792  19.574009019240716  120.000000
7.98555  0.000000  0.000000  0.000000  -35.932159902812096  2.5739101667355286  -10.844500358137974  42.83525052647787  16.847622583807635  8.650702937532314  125.4165647927449  7.351658490055142  -107.70911253657196  19.7713061231123  120.000000
8.043  0.000000  0.000000  0.000000  -35.98332775405333  2.5775315982361056  -10.264648006759467  43.06062348852222  16.448045064832833  8.290853298546331  126.25576217003545  7.11555658922691  -108.85909905148027  19.974036097999686  120.000000
8.10045  0.000000  0.000000  0.000000  -36.04708585353342  2.569960260827215  -9.697616552902403  43.25618119768543  16.062401884698602  7.927172910552794  127.16477845193941  6.896527596265656  -110.0277861316948  20.19630440328864  120.000000
8.1579  0.000000  0.000000  0.000000  -36.11680820363365  2.5589800583326467  -9.146923404415542  43.40663336616009  15.691440011669197  7.551369785168529  128.1122778625462  6.680295209584638  -111.17960831175408  20.44818121999167  120.000000
8.21535  0.000000  0.000000  0.000000  -36.18008282188242  2.550686484668578  -8.62061359708103  43.489634682000826  15.331566960776282  7.1632431598912705  129.06294529082984  6.451020884278724  -112.28949862789787  20.722573926723374  120.000000
8.2728  0.000000  0.000000  0.000000  -36.219669979558816  2.5533417168514156  -8.135893057412126  43.48515596525386  14.979301540778932  6.764195263632088  129.9260189881413  6.195980523912813  -113.293265195794  20.986931572280934  120.000000
8.33025  0.000000  0.000000  0.000000  -36.218321899197385  2.57722534515502  -7.7199874889671385  43.377691741052686  14.634323845974182  6.355800603315422  130.50822674484738  5.9109636827109995  -114.0350819315194  21.188470505296113  120.000000
8.3877  0.000000  0.000000  0.000000  -36.161368532839404  2.6235650114212805  -7.404061108035695  43.15413866744357  14.300388035396685  5.945670659701297  130.48007927207576  5.603147428761957  -114.21906409927203  21.272941624241415  120.000000
8.44515  0.000000  0.000000  0.000000  -36.033584024775344  2.681538050702367  -7.218263422184398  42.81409514433844  13.987052190782844  5.543477858401145  129.3174946375825  5.2963393045822  -113.33187196297476  21.21176735081961  120.000000
